<svg id="Capa_1" xmlns="http://www.w3.org/2000/svg" version="1.1" viewBox="0 0 30 50" width="60" height="100">
  <path fill="#1F3A3D" d="M14.9,0C6.7,0,0,6.7,0,14.9v18.4c0,8.2,6.7,14.9,14.9,14.9s14.9-6.7,14.9-14.9V14.9c0-8.2-6.7-14.9-14.9-14.9ZM26.9,14.9v18.4c0,6.6-5.4,12-12,12s-12-5.4-12-12V14.9c0-.2,0-.5,0-.7,0-.3,0-.5,0-.7.2-.8,1-1.3,1.9-1.2.8.2,1.3,1,1.2,1.8,0,.3,0,.5-.1.8-.1,1.6,1.3,2.9,2.9,2.9s2.9-1.3,2.9-2.9-1.3-2.9-2.9-2.9-.2,0-.3,0c-1.2.1-2.4-.5-3-1.6-.6-1-.4-2.3.3-3.3,2.2-2.5,5.4-4.2,9-4.2,6.6,0,12,5.4,12,12h0Z"/>
</svg>
